<?xml version="1.0" encoding="utf-8"?>
<!-- Generator: Adobe Illustrator 25.1.0, SVG Export Plug-In . SVG Version: 6.00 Build 0)  -->
<svg version="1.1" id="Layer_1" xmlns="http://www.w3.org/2000/svg" xmlns:xlink="http://www.w3.org/1999/xlink" x="0px" y="0px"
	 viewBox="0 0 144.3 143.9" style="enable-background:new 0 0 144.3 143.9;" xml:space="preserve">
<style type="text/css">
	.st0{fill:#FFFFFF;}
	.st1{fill:#010101;}
</style>
<g>
	<circle class="st0" cx="72" cy="72" r="72"/>
	<g>
		<path class="st1" d="M120,85.3l-34.8,34.7c-0.1,0.1-0.3,0.2-0.5,0.1l-47.5-12.7c-0.2,0-0.3-0.2-0.4-0.4L24.2,59.6
			c0-0.2,0-0.4,0.1-0.5l34.8-34.7c0.1-0.1,0.3-0.2,0.5-0.1L107.1,37c0.2,0,0.3,0.2,0.4,0.4l12.7,47.4
			C120.2,84.9,120.2,85.1,120,85.3z M73.5,47.5L26.8,60c-0.1,0-0.1,0.1-0.1,0.2l34.1,34.1c0.1,0.1,0.2,0,0.2-0.1l12.5-46.5
			C73.7,47.6,73.6,47.5,73.5,47.5z"/>
	</g>
</g>
</svg>
